# xmcd
#
# Track frame offsets: 
#        182
#        12410
#        25375
#        39112
#        53200
#        68025
#        83560
#        96232
#        109347
#        122225
#        135180
#        148390
#        161027
#        173497
#        186110
#        198732
#        210547
#        224550
#        237710
#        251050
#        266477
#        280040
#        294165
#
# Disc length: 4119 seconds
#
# Revision: 1
# Processed by: cddbd v1.5.2PL0 Copyright (c) Steve Scherf et al.
# Submitted via: ExactAudioCopy v0.99pb4
#
DISCID=59101517
DTITLE=Henry Thomas - Complete Recorded Works, 1927-1929
DYEAR=1900
DGENRE=Blues
TTITLE0=Fishing Blues
TTITLE1=Old Country Stomp
TTITLE2=Charmin' Betsy
TTITLE3=Lovin' Babe
TTITLE4=Railroadin' Some
TTITLE5=Don't Leave Me Here
TTITLE6=The Little Red Caboose
TTITLE7=Bob Mckinney
TTITLE8=Honey, Won't You Allow Me One More Chance?
TTITLE9=Run, Mollie, Run
TTITLE10=Shanty Blues
TTITLE11=Woodhouse Blues
TTITLE12=John Henry
TTITLE13=Cottonfield Blues
TTITLE14=Arkansas
TTITLE15=The Fox And The Hounds
TTITLE16=Red River Blues
TTITLE17=Jonah In The Wilderness
TTITLE18=When The Train Comes Along
TTITLE19=Bull Doze Blues
TTITLE20=Don't Ease Me In
TTITLE21=Texas Easy Street
TTITLE22=Texas Worried Blues
EXTD=
EXTT0=
EXTT1=
EXTT2=
EXTT3=
EXTT4=
EXTT5=
EXTT6=
EXTT7=
EXTT8=
EXTT9=
EXTT10=
EXTT11=
EXTT12=
EXTT13=
EXTT14=
EXTT15=
EXTT16=
EXTT17=
EXTT18=
EXTT19=
EXTT20=
EXTT21=
EXTT22=
PLAYORDER=
